<?xml version="1.0" standalone="no"?>
<!DOCTYPE svg PUBLIC "-//W3C//DTD SVG 20010904//EN"
 "http://www.w3.org/TR/2001/REC-SVG-20010904/DTD/svg10.dtd">
<svg version="1.0" xmlns="http://www.w3.org/2000/svg"
 width="268.000000pt" height="78.000000pt" viewBox="0 0 268.000000 78.000000"
 preserveAspectRatio="xMidYMid meet">

<g transform="translate(0.000000,78.000000) scale(0.100000,-0.100000)"
fill="#000000" stroke="none">
<path d="M2304 733 c-8 -44 -48 -138 -63 -148 -6 -3 -11 -13 -11 -21 0 -19
-50 -85 -60 -79 -4 2 -17 -6 -29 -19 l-22 -23 40 -17 c36 -14 41 -20 42 -48 1
-18 1 -37 0 -41 -1 -4 53 -7 119 -6 66 0 120 5 120 10 0 8 -10 12 -30 11 -3 0
-21 -3 -40 -7 -26 -4 -31 -3 -20 4 8 6 25 11 38 11 29 0 28 14 -3 34 -23 15
-25 15 -40 -8 -16 -23 -45 -26 -45 -4 0 5 4 7 9 4 5 -3 12 6 16 21 5 21 1 31
-17 45 l-23 18 32 0 c25 0 33 5 41 28 l10 27 11 -27 c8 -21 17 -28 38 -28 l28
-1 -22 -18 c-20 -17 -21 -22 -11 -52 14 -41 24 -48 55 -43 12 2 23 0 23 -6 0
-5 7 -10 15 -10 8 0 15 7 15 15 0 8 8 15 18 15 14 0 15 -2 2 -10 -12 -8 -10
-10 8 -10 19 0 22 4 17 20 -3 10 1 29 9 42 9 15 13 38 11 65 -5 51 11 86 55
116 40 26 41 40 3 48 -15 3 -38 11 -51 18 -28 15 -82 22 -82 11 0 -4 -7 -11
-16 -14 -8 -3 -12 -2 -9 4 13 21 -19 9 -41 -16 -30 -31 -31 -22 -3 14 12 16
16 28 10 30 -6 2 -9 7 -6 12 8 13 -47 52 -58 41 -5 -5 -16 -2 -28 10 -30 30
-47 24 -55 -18z m-111 -282 c5 -1 6 -5 3 -10 -8 -12 18 -21 34 -11 10 6 8 9
-6 13 -16 4 -16 5 4 6 12 0 22 -5 23 -11 0 -10 2 -10 6 0 2 6 12 12 21 11 11
0 12 -2 5 -6 -7 -2 -13 -11 -13 -20 0 -10 -6 -13 -22 -8 -18 5 -20 4 -8 -4 32
-23 -12 -10 -50 14 -44 28 -49 35 -22 30 9 -2 21 -4 25 -4z m267 -4 c0 -8 -7
-14 -15 -14 -25 0 -17 17 13 26 1 1 2 -5 2 -12z m54 4 c10 -15 -22 -20 -34 -5
-10 11 -9 14 8 14 12 0 23 -4 26 -9z m-207 -31 c1 -14 -4 -20 -20 -20 -13 0
-17 -3 -11 -8 12 -8 26 -42 18 -42 -3 0 -14 10 -25 23 -14 16 -17 17 -13 5 3
-10 1 -18 -5 -18 -24 0 -9 32 22 45 17 8 25 14 17 15 -13 0 -13 1 0 10 8 5 15
10 15 10 1 0 1 -9 2 -20z m241 -1 c-2 -16 -11 -22 -35 -24 -39 -3 -42 6 -10
28 32 23 49 21 45 -4z m-105 -2 c4 3 7 1 7 -5 0 -17 -16 -15 -31 6 -12 15 -12
16 2 5 9 -7 19 -10 22 -6z m53 -37 c12 -5 3 -8 -26 -8 -39 -1 -43 1 -27 12 9
7 17 19 18 27 0 8 4 6 8 -5 4 -11 16 -23 27 -26z m-116 0 c0 -5 -5 -10 -11
-10 -5 0 -7 5 -4 10 3 6 8 10 11 10 2 0 4 -4 4 -10z m-123 -36 c-3 -3 -12 -4
-19 -1 -8 3 -5 6 6 6 11 1 17 -2 13 -5z"/>
<path d="M1000 320 c0 -167 4 -260 10 -260 6 0 10 93 10 260 0 167 -4 260 -10
260 -6 0 -10 -93 -10 -260z"/>
<path d="M1192 564 c-25 -18 -30 -65 -8 -83 24 -20 70 -10 74 17 3 18 -1 22
-20 21 -18 -1 -19 -2 -5 -6 10 -3 16 -10 14 -16 -6 -18 -42 -20 -56 -3 -28 34
12 82 49 58 11 -7 20 -8 20 -2 0 8 -31 30 -42 30 -2 0 -14 -7 -26 -16z"/>
<path d="M1310 572 c-37 -13 -42 -73 -8 -96 19 -13 25 -14 43 -2 43 28 12 115
-35 98z m46 -37 c8 -31 -12 -57 -40 -53 -13 2 -22 12 -24 26 -5 36 5 52 32 52
19 0 27 -7 32 -25z"/>
<path d="M1792 573 c-21 -8 -33 -50 -22 -78 7 -19 17 -25 39 -25 49 0 67 54
31 90 -21 21 -26 22 -48 13z m48 -33 c15 -28 -4 -62 -33 -58 -22 3 -34 35 -23
64 8 21 44 17 56 -6z"/>
<path d="M2032 564 c-41 -28 -24 -94 24 -94 46 0 60 69 19 96 -18 12 -24 11
-43 -2z m54 -29 c9 -36 -2 -55 -30 -55 -27 0 -41 27 -31 60 10 30 53 27 61 -5z"/>
<path d="M1382 559 c3 -8 11 -31 19 -52 7 -20 17 -36 23 -34 12 4 38 77 33 91
-2 6 -10 -8 -17 -31 -14 -47 -25 -48 -35 -3 -4 16 -11 33 -17 37 -7 4 -9 1 -6
-8z"/>
<path d="M1480 520 l0 -50 38 2 c36 1 36 1 5 5 -24 3 -33 9 -33 23 0 14 9 20
33 23 l32 4 -32 1 c-21 1 -33 7 -33 16 0 9 13 16 33 19 31 4 31 4 -5 5 l-38 2
0 -50z"/>
<path d="M1571 518 c1 -29 4 -43 6 -30 6 28 34 29 51 1 7 -12 16 -18 19 -15 3
3 0 12 -7 21 -10 12 -10 18 0 30 20 24 4 45 -35 45 l-35 0 1 -52z m60 27 c0
-5 -12 -11 -26 -13 -18 -2 -25 1 -25 13 0 12 7 15 25 13 14 -2 26 -7 26 -13z"/>
<path d="M1670 518 c0 -28 2 -49 4 -47 8 9 13 99 5 99 -5 0 -9 -23 -9 -52z"/>
<path d="M1732 535 c5 -42 -4 -45 -21 -9 -6 15 -14 24 -18 21 -7 -8 36 -77 48
-77 5 0 9 23 9 50 0 30 -4 50 -11 50 -7 0 -10 -14 -7 -35z"/>
<path d="M1910 520 l0 -51 38 3 c37 3 37 3 37 48 0 45 0 45 -37 48 l-38 3 0
-51z m65 0 c0 -29 -4 -36 -22 -38 -21 -3 -23 1 -23 38 0 37 2 41 23 38 18 -2
22 -9 22 -38z"/>
<path d="M1915 452 c-11 -12 -4 -24 8 -14 7 6 18 7 26 2 15 -8 41 -3 41 9 0 7
-68 10 -75 3z"/>
<path d="M0 325 l0 -105 25 0 c24 0 25 2 25 68 l0 67 22 -37 c27 -47 52 -48
78 -6 l19 31 3 -59 c3 -56 4 -59 31 -62 l27 -3 0 105 0 106 -29 0 c-23 0 -34
-9 -58 -46 l-30 -46 -27 46 c-22 38 -32 46 -56 46 l-30 0 0 -105z"/>
<path d="M331 412 c-6 -10 -19 -41 -30 -68 -11 -27 -27 -66 -35 -86 l-16 -38
29 0 c21 0 32 6 36 20 9 29 101 29 110 0 7 -22 55 -29 55 -7 -1 6 -18 53 -39
102 -35 84 -40 90 -69 93 -22 2 -34 -2 -41 -16z m57 -82 c11 -29 10 -30 -19
-30 -16 0 -29 2 -29 4 0 1 5 17 11 34 13 37 23 34 37 -8z"/>
<path d="M510 325 l0 -105 25 0 c22 0 25 4 25 34 0 32 1 34 47 39 54 6 73 25
73 73 0 47 -29 64 -107 64 l-63 0 0 -105z m104 59 c25 -10 19 -43 -8 -50 -30
-7 -46 1 -46 25 0 30 19 38 54 25z"/>
<path d="M757 423 c-11 -19 -77 -184 -77 -193 0 -19 48 -11 55 10 9 29 101 29
110 0 4 -14 15 -20 36 -20 l29 0 -22 53 c-11 28 -30 76 -42 104 -19 48 -24 53
-53 53 -17 0 -34 -3 -36 -7z m46 -70 c2 -10 8 -26 12 -35 6 -15 2 -18 -25 -18
-27 0 -31 3 -25 18 4 9 10 25 12 35 3 9 9 17 13 17 4 0 10 -8 13 -17z"/>
<path d="M1160 305 c0 -96 3 -115 15 -115 12 0 15 16 16 83 l1 82 15 -35 16
-35 13 30 c12 28 13 25 14 -47 0 -63 3 -78 15 -78 12 0 15 19 15 115 0 95 -3
115 -15 115 -8 0 -21 -15 -29 -32 l-14 -33 -13 33 c-8 19 -20 32 -31 32 -16 0
-18 -11 -18 -115z"/>
<path d="M1317 414 c-4 -4 -7 -56 -7 -116 0 -89 3 -108 15 -108 11 0 15 12 15
45 0 33 4 45 15 45 11 0 15 -12 15 -45 0 -34 4 -45 15 -45 13 0 15 17 13 113
l-3 112 -35 3 c-20 2 -39 0 -43 -4z m53 -59 c0 -33 -4 -45 -15 -45 -11 0 -15
12 -15 45 0 33 4 45 15 45 11 0 15 -12 15 -45z"/>
<path d="M1430 306 c0 -96 3 -116 15 -116 12 0 15 13 15 56 0 73 24 70 28 -4
2 -37 7 -52 18 -52 17 0 20 95 4 105 -8 5 -8 11 0 20 6 8 10 33 8 57 -3 43 -3
43 -45 46 l-43 3 0 -115z m60 54 c0 -29 -4 -40 -15 -40 -11 0 -15 11 -15 40 0
29 4 40 15 40 11 0 15 -11 15 -40z"/>
<path d="M1557 414 c-4 -4 -7 -56 -7 -116 0 -89 3 -108 15 -108 11 0 15 12 15
45 0 33 4 45 15 45 11 0 15 -12 15 -45 0 -34 4 -45 15 -45 13 0 15 17 13 113
l-3 112 -35 3 c-20 2 -39 0 -43 -4z m51 -62 c2 -33 0 -42 -12 -42 -12 0 -16
11 -16 46 0 59 24 55 28 -4z"/>
<path d="M1670 305 c0 -100 2 -115 16 -115 14 0 16 10 12 68 -6 71 -2 68 16
-12 20 -90 34 -68 38 58 2 86 0 116 -9 116 -8 0 -13 -22 -15 -62 l-3 -63 -14
63 c-9 39 -19 62 -27 62 -11 0 -14 -24 -14 -115z"/>
<path d="M1787 308 c2 -116 19 -163 25 -67 4 75 28 79 28 5 0 -43 3 -56 15
-56 12 0 15 19 15 115 0 96 -3 115 -15 115 -11 0 -15 -12 -15 -50 0 -38 -4
-50 -15 -50 -11 0 -15 12 -15 50 0 33 -4 50 -12 50 -10 0 -13 -28 -11 -112z"/>
<path d="M1907 414 c-4 -4 -7 -56 -7 -116 0 -89 3 -108 15 -108 11 0 15 12 15
45 0 33 4 45 15 45 11 0 15 -12 15 -45 0 -34 4 -45 15 -45 13 0 15 17 13 113
l-3 112 -35 3 c-20 2 -39 0 -43 -4z m53 -59 c0 -33 -4 -45 -15 -45 -11 0 -15
11 -15 38 0 21 3 42 7 45 16 16 23 4 23 -38z"/>
<path d="M2025 407 c-3 -7 -4 -58 -3 -113 l3 -99 40 0 40 0 0 110 0 110 -38 3
c-25 2 -39 -1 -42 -11z m53 -99 c-2 -54 -7 -93 -13 -93 -6 0 -11 39 -13 93 -2
78 0 92 13 92 13 0 15 -14 13 -92z"/>
<path d="M2450 340 c0 -5 5 -10 11 -10 5 0 7 5 4 10 -3 6 -8 10 -11 10 -2 0
-4 -4 -4 -10z"/>
<path d="M2563 343 c-20 -8 -15 -22 7 -20 11 1 20 7 20 14 0 14 -6 15 -27 6z"/>
<path d="M2505 330 c-19 -8 -19 -9 2 -9 12 -1 25 4 28 9 7 12 -2 12 -30 0z"/>
<path d="M1 163 c0 -25 1 -26 9 -8 12 27 12 35 0 35 -5 0 -10 -12 -9 -27z"/>
<path d="M46 168 c9 -30 8 -30 28 -22 9 3 13 11 10 16 -4 6 -10 5 -15 -3 -6
-10 -9 -8 -9 9 0 12 -5 22 -11 22 -6 0 -8 -9 -3 -22z"/>
<path d="M85 180 c3 -5 8 -10 11 -10 2 0 4 5 4 10 0 6 -5 10 -11 10 -5 0 -7
-4 -4 -10z"/>
<path d="M121 165 c-1 -22 2 -26 8 -16 8 12 12 12 25 2 10 -8 20 -9 32 -3 11
6 13 11 5 16 -6 4 -11 2 -11 -3 0 -6 -5 -11 -11 -11 -6 0 -8 9 -4 20 4 12 2
20 -5 20 -6 0 -8 -4 -5 -10 3 -5 0 -10 -9 -10 -8 0 -17 6 -19 13 -3 6 -6 -1
-6 -18z"/>
<path d="M195 180 c3 -5 8 -10 11 -10 2 0 4 5 4 10 0 6 -5 10 -11 10 -5 0 -7
-4 -4 -10z"/>
<path d="M231 164 c0 -25 2 -26 9 -9 7 18 8 19 15 3 11 -27 25 -21 24 10 -1
18 -3 21 -6 9 -5 -18 -6 -18 -24 -1 -18 16 -19 16 -18 -12z"/>
<path d="M291 165 c0 -16 3 -24 6 -17 2 6 11 12 19 12 8 0 14 8 14 18 0 14 -2
15 -10 2 -9 -13 -11 -13 -20 0 -7 12 -10 8 -9 -15z"/>
<path d="M353 173 c-3 -10 -7 -20 -9 -23 -1 -3 8 -5 20 -5 17 0 22 5 18 18 -7
26 -21 31 -29 10z"/>
<path d="M435 165 c0 -13 3 -21 8 -18 4 2 7 10 7 18 0 8 -3 16 -7 18 -5 3 -8
-5 -8 -18z"/>
<path d="M481 165 c0 -16 3 -25 7 -19 4 6 14 14 22 17 12 4 12 6 -2 6 -9 1
-19 7 -21 14 -3 6 -6 -1 -6 -18z"/>
<path d="M547 176 c4 -12 3 -17 -4 -13 -6 4 -13 1 -16 -6 -3 -7 4 -12 19 -12
28 0 29 4 9 31 -15 18 -15 18 -8 0z"/>
<path d="M581 165 c-1 -22 2 -26 8 -16 8 12 12 13 25 1 14 -11 16 -10 10 5 -6
14 -4 16 7 10 12 -8 12 -6 0 8 -15 18 -26 23 -16 7 3 -5 0 -10 -9 -10 -8 0
-17 6 -19 13 -3 6 -6 -1 -6 -18z"/>
<path d="M690 168 c0 -16 5 -28 11 -28 5 0 7 5 4 10 -3 6 2 10 12 11 14 0 15
2 3 6 -8 3 -18 11 -22 17 -4 6 -8 -1 -8 -16z"/>
<path d="M780 180 c0 -5 -8 -10 -17 -11 -14 0 -15 -2 -3 -6 8 -3 18 -10 21
-16 4 -5 7 3 7 17 0 14 -2 26 -4 26 -2 0 -4 -4 -4 -10z"/>
<path d="M802 165 c0 -16 2 -22 5 -12 2 9 2 23 0 30 -3 6 -5 -1 -5 -18z"/>
<path d="M833 173 c-3 -10 -7 -20 -9 -23 -1 -3 8 -5 20 -5 17 0 22 5 18 18 -7
26 -21 31 -29 10z"/>
<path d="M880 182 c0 -4 9 -15 20 -25 11 -9 20 -13 20 -9 0 4 -9 15 -20 25
-11 9 -20 13 -20 9z"/>
<path d="M1403 163 c130 -2 344 -2 475 0 130 1 23 2 -238 2 -261 0 -368 -1
-237 -2z"/>
<path d="M20 150 c0 -5 5 -10 10 -10 6 0 10 5 10 10 0 6 -4 10 -10 10 -5 0
-10 -4 -10 -10z"/>
<path d="M1165 110 c-3 -11 -3 -24 0 -30 10 -16 45 -12 45 5 0 8 -5 15 -11 15
-5 0 -7 -4 -4 -10 3 -5 -1 -10 -10 -10 -10 0 -15 7 -13 18 2 9 11 16 21 16 9
-1 14 2 11 7 -9 16 -32 10 -39 -11z"/>
<path d="M1224 116 c-9 -24 4 -48 23 -44 12 2 18 12 18 28 0 29 -32 41 -41 16z
m36 -16 c0 -11 -7 -20 -15 -20 -8 0 -15 9 -15 20 0 11 7 20 15 20 8 0 15 -9
15 -20z"/>
<path d="M1330 100 c0 -25 4 -30 23 -29 16 1 18 2 5 6 -10 2 -18 13 -18 23 0
10 8 21 18 23 13 4 11 5 -5 6 -19 1 -23 -4 -23 -29z"/>
<path d="M1393 124 c10 -3 16 -11 14 -18 -3 -7 -1 -19 4 -27 5 -9 7 -4 6 16
-2 21 -8 30 -22 32 -17 2 -17 1 -2 -3z"/>
<path d="M1431 100 c0 -27 2 -30 8 -15 8 19 8 19 19 0 6 -11 11 -15 11 -10 1
6 -8 21 -19 35 l-20 25 1 -35z"/>
<path d="M1490 126 c0 -2 9 -6 20 -9 11 -3 18 -1 14 4 -5 9 -34 13 -34 5z"/>
<path d="M1560 100 c0 -25 4 -30 23 -29 16 1 18 2 5 6 -10 2 -18 13 -18 24 0
24 16 25 29 2 6 -10 11 -13 11 -7 0 14 -21 34 -37 34 -8 0 -13 -12 -13 -30z"/>
<path d="M1628 123 c7 -3 16 -2 19 1 4 3 -2 6 -13 5 -11 0 -14 -3 -6 -6z"/>
<path d="M1688 123 c6 -2 18 -2 25 0 6 3 1 5 -13 5 -14 0 -19 -2 -12 -5z"/>
<path d="M1735 120 c-3 -6 1 -7 9 -4 10 4 20 -3 28 -20 15 -33 51 -32 56 2 4
26 -21 40 -42 23 -10 -8 -16 -9 -21 -1 -8 13 -22 13 -30 0z m85 -20 c0 -11 -7
-20 -15 -20 -8 0 -15 9 -15 20 0 11 7 20 15 20 8 0 15 -9 15 -20z"/>
<path d="M1845 120 c-3 -5 0 -7 8 -4 8 3 21 -6 31 -20 17 -26 40 -34 51 -17 3
5 0 13 -6 17 -8 5 -9 3 -4 -5 5 -9 2 -12 -10 -9 -10 1 -20 9 -23 17 -3 9 0 11
8 6 9 -5 11 -4 6 3 -4 7 0 12 11 13 11 0 13 3 5 6 -7 3 -19 0 -26 -7 -10 -7
-16 -8 -21 0 -8 13 -22 13 -30 0z"/>
<path d="M2000 108 c-1 -21 -2 -21 -11 -5 -15 26 -29 21 -28 -10 2 -24 2 -25
6 -5 l4 22 19 -22 19 -23 1 33 c0 17 -2 32 -5 32 -3 0 -5 -10 -5 -22z"/>
<path d="M2025 120 c-3 -5 0 -7 8 -4 8 3 21 -6 31 -20 17 -26 40 -34 51 -17 3
5 0 13 -6 17 -8 4 -9 3 -5 -4 15 -24 -22 -11 -38 13 -17 26 -31 31 -41 15z"/>
<path d="M2088 123 c7 -3 16 -2 19 1 4 3 -2 6 -13 5 -11 0 -14 -3 -6 -6z"/>
<path d="M1481 97 c-1 -21 26 -34 41 -19 8 8 5 9 -10 6 -14 -4 -22 0 -25 13
-4 17 -5 17 -6 0z"/>
<path d="M2247 94 c3 -9 9 -12 12 -7 3 4 17 10 31 11 41 6 36 12 -8 12 -34 0
-40 -3 -35 -16z"/>
<path d="M1297 93 c-4 -3 -7 -11 -7 -17 0 -6 5 -5 12 2 6 6 9 14 7 17 -3 3 -9
2 -12 -2z"/>
<path d="M1732 84 c9 -9 21 -15 27 -13 6 2 -2 10 -17 17 -25 11 -25 11 -10 -4z"/>
<path d="M1848 78 c5 -5 16 -8 23 -6 8 3 3 7 -10 11 -17 4 -21 3 -13 -5z"/>
<path d="M2028 78 c5 -5 16 -8 23 -6 8 3 3 7 -10 11 -17 4 -21 3 -13 -5z"/>
<path d="M1618 73 c6 -2 18 -2 25 0 6 3 1 5 -13 5 -14 0 -19 -2 -12 -5z"/>
<path d="M2274 71 c5 -8 56 -3 56 5 0 2 -14 4 -31 4 -16 0 -28 -4 -25 -9z"/>
<path d="M2273 43 c10 -9 57 -10 57 -1 0 4 -14 8 -32 8 -17 0 -28 -3 -25 -7z"/>
<path d="M2298 13 c7 -3 16 -2 19 1 4 3 -2 6 -13 5 -11 0 -14 -3 -6 -6z"/>
</g>
</svg>
